# xmcd
# 
# Track frame offsets:
#     150
#     18525
#     41325
#     69150
#     97307
#     118682
#     146507
#     170591
#     190778
#     212702
# 
# Disc length: 3075
# 
# Revision: 0
# Processed by: cddbd v1.5.2PL0 Copyright (c) Steve Scherf et al.
# Submitted via: fre:ac v1.0.27
# 
DISCID=8c0c010a
DTITLE=Blues Cats feat. Ralf Grottian - Snapshot
DYEAR=2017
DGENRE=Blues
TTITLE0=Never Make You Move Too Soon
TTITLE1=Wait On Time
TTITLE2=Walking Blues
TTITLE3=If You Live
TTITLE4=Come On
TTITLE5=Just Your Fool
TTITLE6=Beaumont Lafayette
TTITLE7=Talk Is Cheap
TTITLE8=Too Many Drivers
TTITLE9=Gee Baby Ain't I good To You
EXTD=
EXTT0=
EXTT1=
EXTT2=
EXTT3=
EXTT4=
EXTT5=
EXTT6=
EXTT7=
EXTT8=
EXTT9=
PLAYORDER=
